<?xml version="1.0" standalone="no"?>
<!DOCTYPE svg PUBLIC "-//W3C//DTD SVG 20010904//EN"
 "http://www.w3.org/TR/2001/REC-SVG-20010904/DTD/svg10.dtd">
<svg version="1.0" xmlns="http://www.w3.org/2000/svg"
 width="150.000000pt" height="450.000000pt" viewBox="00 300 360.000000 450.000000"
 preserveAspectRatio="xMidYMid meet">

<g transform="translate(0.000000,450.000000) scale(0.100000,-0.100000)"
fill="#000000" stroke="none">
<path d="M1644 4335 c-156 -29 -357 -114 -524 -222 -113 -74 -192 -143 -261
-230 -122 -153 -165 -301 -156 -538 4 -99 12 -164 27 -220 18 -66 20 -86 11
-121 -16 -63 -13 -131 8 -206 19 -67 19 -68 -1 -120 -24 -64 -20 -139 11 -212
18 -40 20 -55 11 -79 -16 -47 -12 -80 16 -142 18 -39 37 -63 60 -77 24 -14 35
-29 40 -55 12 -63 -1 -166 -29 -226 -28 -61 -24 -69 15 -37 l25 19 -8 -46 c-5
-26 -25 -69 -44 -97 -38 -57 -65 -125 -64 -165 0 -24 1 -25 12 -7 7 11 27 36
45 55 l32 36 -27 -60 c-23 -52 -28 -78 -33 -190 -3 -74 -11 -140 -18 -153 -13
-22 -7 -28 14 -14 6 4 16 16 22 27 11 19 11 19 12 -5 0 -14 -7 -52 -14 -85 -8
-33 -13 -61 -11 -63 1 -2 13 10 25 25 l23 28 -6 -90 c-3 -49 -10 -102 -16
-117 -9 -24 -8 -26 7 -21 9 4 28 15 42 26 l25 19 6 -99 c4 -80 10 -108 33
-151 15 -30 30 -51 34 -48 3 4 8 24 11 46 l6 40 37 -47 c47 -61 75 -117 83
-168 l7 -40 14 25 c7 14 13 35 14 48 0 32 20 24 44 -18 13 -23 20 -53 20 -96
1 -59 2 -62 18 -47 10 9 26 33 35 54 9 22 20 39 24 39 4 0 13 -25 20 -55 l12
-55 24 22 c12 12 24 20 26 17 2 -2 20 -33 39 -69 37 -66 65 -98 105 -119 33
-17 36 -13 14 15 -14 18 -21 41 -21 73 l0 46 19 -30 c21 -34 69 -81 75 -74 3
2 7 17 10 33 3 16 7 30 9 33 5 5 37 -35 70 -87 32 -49 53 -50 60 -3 4 21 14
49 23 62 16 23 18 23 31 6 7 -11 13 -46 14 -79 0 -34 4 -70 8 -81 7 -17 11
-14 30 25 12 25 37 69 55 98 l34 53 11 -32 c6 -17 8 -35 5 -40 -3 -5 -1 -9 5
-9 13 0 91 92 91 108 0 6 5 12 10 12 17 0 11 -74 -10 -107 -23 -39 -15 -41 31
-10 21 14 51 53 78 100 l44 78 22 -21 c28 -27 35 -25 35 8 1 15 7 41 14 57
l13 30 23 -48 c12 -26 30 -52 39 -56 14 -8 16 -4 13 31 -5 49 14 122 38 143
16 15 18 14 23 -12 3 -15 13 -37 21 -48 15 -20 15 -19 16 5 0 51 22 102 66
155 24 30 44 60 44 65 0 6 5 8 10 5 6 -3 10 -21 10 -40 0 -53 16 -50 45 10 22
43 29 75 33 143 l5 89 43 -16 c44 -16 65 -11 46 11 -27 33 -45 137 -43 243 1
49 1 49 18 26 9 -14 22 -41 29 -60 l12 -36 12 30 c9 24 8 43 -6 95 -10 36 -20
124 -24 195 -4 93 -11 140 -24 165 l-17 35 23 -25 c13 -14 33 -39 44 -55 l22
-29 -5 39 c-5 47 -33 113 -66 157 -14 18 -30 51 -36 73 -17 62 -15 69 16 46
14 -12 28 -20 30 -18 2 2 -6 25 -17 51 -52 117 -47 255 10 288 19 11 39 37 55
74 27 61 30 91 16 142 -8 26 -5 44 15 92 29 72 31 133 5 200 -19 50 -19 52 0
118 21 75 24 143 8 206 -9 35 -7 55 11 121 15 56 23 121 27 220 9 237 -34 385
-156 538 -97 122 -239 231 -420 321 -251 126 -470 169 -677 131z m341 -44
c216 -59 274 -85 465 -211 186 -123 304 -246 361 -376 32 -71 49 -186 49 -322
-1 -114 -24 -295 -30 -232 -1 14 -2 29 -1 33 9 54 9 77 0 71 -6 -3 -3 9 7 27
16 33 16 33 -1 19 -17 -14 -18 -14 -6 8 6 12 9 27 6 32 -3 5 -1 19 6 31 8 15
8 19 0 15 -14 -9 -14 0 -1 24 11 21 3 53 -12 44 -6 -4 -5 2 1 14 14 26 14 35
1 27 -13 -8 -13 -3 0 32 10 27 10 27 -6 8 -16 -19 -16 -14 2 29 5 14 4 17 -5
11 -10 -6 -11 -2 -6 15 5 17 4 20 -5 15 -10 -6 -11 -1 -6 19 4 15 2 26 -4 26
-5 0 -10 10 -10 23 0 18 -2 19 -10 7 -7 -11 -10 -7 -10 18 0 20 -4 31 -10 27
-5 -3 -10 0 -10 8 0 26 -115 165 -132 160 -5 -2 -8 1 -8 6 0 5 -33 38 -72 72
-62 55 -68 58 -41 24 17 -22 46 -53 63 -70 48 -45 108 -129 138 -193 36 -78
37 -178 2 -277 -30 -87 -34 -226 -7 -289 20 -46 15 -61 -7 -19 -8 16 -22 35
-30 42 -19 16 -22 36 -4 25 7 -4 1 8 -12 27 -15 21 -18 29 -7 20 21 -16 22 -3
2 23 -11 14 -12 22 -4 27 8 5 7 13 -2 30 -11 22 -11 23 4 10 20 -16 21 -12 7
24 -7 19 -7 24 1 19 9 -5 10 1 5 21 -6 25 -5 27 9 15 14 -12 15 -10 5 14 -7
20 -7 25 1 20 9 -5 10 1 5 21 -7 26 -6 27 10 14 16 -13 16 -12 6 8 -15 27 -15
36 -2 28 14 -9 12 18 -2 34 -11 11 -10 13 5 8 16 -6 16 -5 1 26 -17 31 -17 32
2 17 18 -15 18 -14 0 14 -10 16 -13 25 -7 22 19 -12 12 6 -11 31 -21 22 -21
24 -3 17 14 -5 10 4 -15 31 -31 33 -32 36 -10 25 18 -8 14 -1 -15 25 -27 24
-33 35 -20 31 l20 -6 -20 15 c-11 8 -29 21 -40 30 -17 14 -17 16 -2 11 27 -8
20 0 -18 24 -19 12 -33 26 -30 30 3 5 -11 19 -32 30 -27 15 -31 19 -13 15 15
-4 4 7 -27 25 -51 30 -70 49 -38 36 37 -14 10 6 -45 34 -34 17 -58 35 -55 40
4 6 -33 29 -82 51 -48 22 -96 45 -106 51 -11 5 -21 7 -24 4 -3 -2 19 -19 49
-35 30 -17 72 -47 94 -66 l39 -36 -57 32 c-32 17 -58 29 -58 26 0 -2 26 -21
58 -42 79 -52 163 -117 158 -122 -2 -3 -21 6 -43 20 -43 27 -90 52 -83 44 3
-3 32 -25 65 -50 72 -54 133 -107 123 -107 -4 0 -30 14 -56 30 -62 38 -77 39
-26 1 21 -16 57 -48 79 -71 l40 -43 -44 32 c-62 44 -69 39 -15 -11 77 -71 108
-128 35 -64 -28 24 -20 8 26 -52 36 -47 44 -75 14 -48 -18 16 -18 15 0 -36 10
-29 18 -66 18 -83 0 -30 -1 -30 -18 10 l-18 40 3 -75 c4 -74 4 -75 -10 -35
l-13 40 -1 -62 c0 -70 -20 -124 -23 -63 -1 33 -2 33 -11 -12 -11 -51 -24 -62
-31 -25 -3 13 -5 8 -6 -15 0 -22 -6 -37 -12 -35 -6 1 -15 -9 -20 -22 -9 -23
-8 -23 28 -17 21 3 65 8 98 11 55 4 57 4 18 -5 -79 -17 -81 -27 -6 -32 38 -3
78 -10 89 -16 15 -8 6 -10 -41 -7 l-60 5 55 -13 c105 -25 174 -90 220 -206 11
-29 19 -66 19 -84 l-1 -32 -7 35 c-4 19 -12 44 -19 55 -10 17 -11 15 -4 -15 8
-38 8 -48 -1 -265 -3 -82 -3 -133 -1 -112 3 20 9 37 13 37 5 0 8 8 7 17 -1 11
7 17 27 18 15 1 27 -3 27 -8 0 -6 2 -8 5 -5 3 3 2 13 -1 22 -5 12 -9 14 -14 6
-5 -8 -9 -7 -13 5 -4 9 -3 13 3 10 13 -8 13 11 0 36 -6 10 -8 19 -6 19 14 0
56 -103 56 -135 0 -31 -23 -105 -32 -105 -2 0 -5 12 -6 27 -1 14 -4 29 -7 31
-10 10 -5 -130 6 -174 11 -41 9 -51 -16 -110 -15 -35 -36 -69 -47 -75 -37 -20
-203 -79 -221 -79 -10 0 -38 14 -63 31 -62 43 -106 59 -159 59 -61 0 -102 -19
-150 -70 -39 -42 -39 -43 -6 -19 71 51 77 54 47 21 -31 -33 -26 -44 6 -15 14
12 12 5 -8 -31 -20 -35 -30 -46 -43 -40 -108 45 -208 49 -281 11 l-50 -26 0
59 c0 33 -4 60 -10 60 -6 0 -10 -26 -10 -58 l0 -59 -51 25 c-65 32 -158 34
-239 3 -30 -12 -56 -21 -57 -21 -1 0 -13 20 -26 45 -14 25 -21 45 -15 45 6 0
5 7 -3 17 -15 20 -13 18 62 -36 30 -21 29 -18 -10 22 -80 84 -171 90 -288 19
-38 -23 -75 -42 -82 -42 -14 0 -193 65 -222 81 -9 4 -29 38 -44 73 -25 59 -27
69 -16 110 6 25 10 78 10 118 -2 60 -3 66 -8 33 l-7 -40 -17 39 c-23 53 -21
103 9 156 20 36 24 39 19 17 -4 -18 -2 -26 4 -22 7 4 8 0 4 -10 -4 -12 -8 -13
-13 -5 -5 8 -9 6 -14 -6 -3 -9 -4 -19 -1 -22 3 -3 5 -1 5 5 0 5 12 9 28 8 19
-1 27 -7 26 -18 -1 -9 2 -17 6 -17 5 0 11 -15 14 -32 2 -18 2 35 -1 117 -9
212 -9 216 -1 255 7 30 6 32 -4 15 -7 -11 -15 -36 -19 -55 l-7 -35 -1 32 c-1
41 30 122 70 179 37 55 91 90 167 109 l57 15 -60 -4 c-82 -6 -47 14 38 22 l62
6 -45 12 -45 12 50 1 c28 0 69 -4 93 -8 36 -7 42 -6 38 6 -3 8 -6 19 -6 24 0
5 -7 9 -15 9 -11 0 -15 11 -16 38 0 35 -1 36 -11 12 -11 -24 -12 -23 -24 25
-10 41 -12 45 -13 20 -3 -55 -23 1 -23 63 l0 57 -14 -40 c-14 -40 -14 -40 -10
35 l3 75 -18 -40 c-17 -40 -18 -40 -18 -10 0 17 8 54 18 83 18 51 18 52 0 36
-42 -38 -10 25 39 79 14 15 21 27 14 27 -6 0 -14 -4 -17 -10 -3 -5 -16 -15
-27 -21 l-21 -11 21 29 c11 16 41 48 66 71 54 49 47 55 -14 11 -23 -17 -39
-26 -35 -19 11 17 93 92 124 112 44 30 11 20 -41 -12 -26 -16 -51 -30 -55 -30
-9 0 83 80 135 117 76 55 59 52 -31 -4 -22 -14 -41 -23 -43 -20 -5 5 79 70
159 122 69 46 75 57 10 21 -25 -15 -48 -25 -50 -22 -6 5 64 58 120 90 26 15
47 29 47 31 0 7 -92 -31 -160 -65 -34 -17 -58 -35 -55 -40 3 -5 -19 -22 -49
-37 -33 -16 -51 -30 -44 -34 7 -4 -4 -15 -28 -28 -59 -31 -75 -44 -44 -36 18
4 14 -1 -13 -15 -21 -11 -35 -25 -32 -30 3 -4 -11 -18 -30 -30 -38 -24 -45
-32 -17 -24 14 5 14 3 -3 -11 -11 -9 -29 -22 -40 -30 l-20 -15 20 6 c13 4 7
-7 -20 -31 -29 -26 -33 -33 -15 -25 22 11 20 8 -10 -24 -25 -27 -29 -35 -15
-30 19 7 18 6 -2 -18 -24 -26 -31 -44 -12 -32 6 3 3 -6 -7 -22 -18 -28 -18
-29 0 -14 19 15 19 14 2 -17 -15 -31 -15 -32 1 -26 15 5 16 3 6 -8 -15 -16
-17 -43 -3 -34 13 8 13 -1 -2 -28 -9 -19 -9 -20 3 -10 12 9 14 4 14 -32 0 -35
2 -42 13 -33 11 9 12 6 6 -17 -5 -20 -4 -26 5 -21 8 5 8 0 1 -19 -14 -36 -13
-40 7 -24 15 13 15 12 5 -8 -15 -27 -15 -36 -2 -28 15 9 12 -8 -5 -31 -20 -26
-19 -39 2 -23 11 9 8 1 -7 -20 -13 -19 -19 -31 -12 -27 18 11 15 -9 -4 -25 -8
-7 -22 -26 -30 -42 -22 -42 -27 -27 -7 19 27 63 23 202 -7 289 -18 51 -25 91
-25 146 0 67 4 83 38 151 24 50 63 105 110 155 110 119 119 133 40 64 -40 -35
-73 -67 -73 -72 0 -5 -3 -8 -7 -7 -18 6 -133 -133 -133 -159 0 -8 -4 -11 -10
-8 -6 4 -10 -5 -10 -20 0 -15 -4 -24 -10 -20 -6 4 -10 -5 -10 -20 0 -16 -4
-24 -10 -20 -7 4 -8 -3 -4 -21 5 -19 4 -25 -5 -20 -14 9 -14 0 1 -27 11 -21
10 -21 -7 -7 -17 14 -18 13 -12 -2 20 -51 20 -54 3 -33 -16 19 -16 18 -1 -19
13 -34 13 -37 0 -26 -18 15 -19 7 -4 -22 6 -12 7 -18 1 -14 -15 9 -23 -23 -12
-44 13 -24 13 -33 -1 -24 -8 4 -8 0 0 -15 7 -12 9 -26 6 -31 -3 -5 0 -20 6
-32 12 -22 11 -22 -6 -8 -17 14 -17 14 -1 -19 10 -18 13 -30 7 -27 -9 6 -9
-17 0 -71 1 -4 0 -19 -1 -33 -6 -63 -29 118 -29 230 0 259 42 374 199 531 190
190 465 341 710 388 30 6 64 13 75 15 43 8 193 -5 260 -23z m-1211 -867 c3 -8
2 -12 -4 -9 -6 3 -10 10 -10 16 0 14 7 11 14 -7z m2057 -7 c-10 -9 -11 -8 -5
6 3 10 9 15 12 12 3 -3 0 -11 -7 -18z m-2006 -254 c-3 -21 -18 -87 -32 -146
-25 -106 -25 -110 -9 -168 21 -77 20 -95 -4 -39 -26 61 -25 117 4 235 14 55
28 112 31 128 8 41 17 33 10 -10z m1989 -108 c31 -131 32 -174 6 -240 -24 -62
-26 -45 -4 34 16 58 16 62 -9 163 -26 106 -43 209 -28 173 4 -11 20 -70 35
-130z m-1413 -981 c11 -19 19 -40 16 -47 -2 -6 -12 4 -22 23 -9 19 -29 48 -44
64 l-26 29 27 -18 c15 -9 37 -32 49 -51z m847 39 c-14 -16 -33 -43 -43 -61 -9
-19 -19 -32 -21 -29 -11 10 25 75 52 95 39 29 43 27 12 -5z m-899 -27 c16 -17
32 -44 35 -61 6 -26 4 -25 -12 10 -11 22 -27 46 -36 54 -21 18 -20 9 4 -31 11
-18 20 -44 19 -58 0 -21 -3 -19 -15 14 -7 21 -23 53 -34 70 -26 44 -2 45 39 2z
m941 -2 c-11 -17 -27 -49 -34 -70 -12 -33 -15 -35 -15 -14 -1 14 8 40 19 58
24 40 25 49 4 31 -9 -8 -25 -32 -36 -54 -16 -35 -18 -36 -12 -10 6 33 57 92
79 92 12 0 10 -7 -5 -33z m340 -73 c0 -10 -6 -7 -17 9 -9 14 -23 31 -30 38 -7
7 -13 19 -13 25 1 17 60 -54 60 -72z m-1600 23 c-13 -27 -19 -33 -20 -19 0 20
28 70 36 62 2 -2 -5 -21 -16 -43z m1689 -115 c18 -35 19 -40 5 -28 -28 23 -54
91 -53 139 l1 45 12 -56 c7 -31 23 -76 35 -100z m-1089 134 c-8 -3 -32 -14
-54 -25 -21 -11 -35 -14 -31 -8 9 14 64 39 85 39 13 -1 13 -1 0 -6z m399 -13
c24 -11 42 -22 39 -25 -2 -3 -22 4 -44 14 -21 10 -46 21 -54 24 -13 5 -13 5 0
6 8 0 35 -8 59 -19z m-1091 -40 c-3 -27 -3 -50 -1 -50 2 0 11 16 19 36 8 20
17 34 20 32 12 -13 -35 -168 -51 -168 -2 0 -2 14 2 31 l6 31 -28 -18 -27 -18
20 40 c11 22 23 61 27 87 10 62 19 60 13 -3z m269 22 c-2 15 0 25 4 22 12 -7
11 -45 -2 -85 -18 -53 -24 -52 -25 2 -1 28 -6 55 -13 62 -6 6 -11 16 -11 22 0
5 12 -3 26 -20 l25 -30 -4 27z m332 25 c-32 -26 -100 -66 -89 -52 16 20 70 55
84 55 5 0 7 -2 5 -3z m131 -12 c-46 -18 -61 -18 -30 0 14 8 34 14 45 14 13 0
8 -5 -15 -14z m290 0 c40 -21 38 -27 -2 -11 -18 7 -40 16 -48 19 -12 4 -11 6
3 6 10 1 31 -6 47 -14z m138 1 c15 -8 36 -24 47 -37 11 -13 13 -19 5 -12 -8 6
-33 22 -54 37 -42 28 -41 34 2 12z m305 -95 c10 -11 9 -13 -3 -9 -8 2 -24 20
-34 39 -17 29 -17 32 -3 20 15 -12 17 -10 19 20 1 27 2 25 5 -11 3 -24 10 -51
16 -59z m-655 82 c-10 -2 -28 -2 -40 0 -13 2 -5 4 17 4 22 1 32 -1 23 -4z
m150 0 c-10 -2 -28 -2 -40 0 -13 2 -5 4 17 4 22 1 32 -1 23 -4z m557 -65 c4
-7 -3 -2 -14 11 -12 13 -21 31 -21 40 0 14 6 6 35 -51z m-1085 -13 c-35 -35
-66 -62 -69 -59 -6 6 115 124 126 124 4 0 -21 -29 -57 -65z m395 55 c-3 -5
-12 -10 -18 -10 -7 0 -36 -18 -66 -41 -50 -38 -52 -39 -32 -11 26 36 137 96
116 62z m154 -28 c13 -10 31 -29 40 -42 13 -21 9 -19 -23 9 -22 18 -54 40 -73
47 -18 8 -33 16 -33 18 0 9 66 -15 89 -32z m336 -34 c28 -30 35 -39 15 -22
-74 65 -104 96 -85 86 11 -6 43 -34 70 -64z m-1176 10 c-13 -46 -11 -58 6 -52
9 4 15 1 15 -7 0 -7 8 -21 17 -31 15 -17 15 -18 0 -13 -9 4 -19 16 -23 27 -4
14 -8 17 -14 8 -5 -8 -9 -7 -14 5 -8 23 -8 39 4 69 14 37 20 32 9 -6z m1461
-27 c0 -30 -19 -68 -20 -41 -1 8 -7 3 -16 -12 -8 -16 -19 -28 -25 -28 -6 0 -1
12 10 26 12 15 21 34 22 43 0 12 2 11 9 -4 8 -19 9 -19 9 2 1 12 -4 34 -9 50
-9 26 -9 27 5 9 8 -11 15 -31 15 -45z m-1001 27 c-22 -23 -53 -87 -46 -94 2
-2 18 16 36 41 34 47 64 74 38 34 -9 -13 -21 -46 -28 -74 -11 -42 -14 -46 -19
-26 -6 25 -6 25 -28 -10 l-23 -34 6 38 c2 20 3 37 1 37 -2 0 -14 -15 -26 -32
l-21 -33 6 35 c9 44 32 95 52 111 9 8 6 -3 -8 -27 l-22 -39 42 48 c24 26 47
47 52 47 5 0 0 -10 -12 -22z m234 -9 c4 19 9 32 12 30 2 -3 -1 -25 -6 -49 -6
-25 -8 -60 -5 -79 6 -41 -2 -35 -19 15 l-13 38 -15 -37 c-9 -20 -18 -37 -21
-37 -5 0 20 89 37 129 l10 26 7 -35 6 -35 7 34z m67 6 c0 42 15 21 39 -55 21
-68 22 -91 1 -40 -15 37 -26 38 -36 3 -7 -25 -8 -23 -14 22 -4 28 -10 62 -14
75 -5 20 -3 19 9 -5 l14 -30 1 30z m300 -57 c0 5 -10 22 -22 38 -16 20 -17 25
-5 15 10 -8 23 -23 28 -34 16 -30 47 -147 38 -141 -5 3 -9 11 -9 17 0 7 -11
30 -24 52 l-25 40 6 -45 5 -45 -21 33 c-26 41 -35 41 -27 0 9 -48 1 -31 -26
49 -25 75 -17 81 24 15 12 -20 24 -30 26 -23 2 7 -10 36 -27 64 l-31 52 45
-48 c25 -27 45 -45 45 -39z m-520 51 c-7 -11 -10 -39 -9 -62 4 -63 0 -89 -11
-82 -5 3 -10 25 -10 47 0 47 -8 45 -21 -4 -8 -32 -9 -32 -4 6 2 21 16 56 30
77 27 41 43 53 25 18z m401 -40 c10 -21 19 -49 18 -61 0 -16 -4 -11 -14 17
l-13 40 -1 -47 c-1 -47 -21 -80 -21 -35 0 13 -14 44 -31 68 l-32 44 32 -29 31
-30 0 28 c0 15 -5 37 -12 49 -10 20 -10 21 6 8 10 -8 26 -32 37 -52z m-592 4
c-10 -21 -19 -51 -19 -68 -1 -16 -8 -43 -16 -60 -8 -16 -12 -21 -9 -10 3 10 8
40 11 65 l4 45 -29 -59 c-34 -67 -59 -99 -42 -53 21 54 11 60 -20 13 -17 -26
-34 -44 -37 -41 -3 2 2 13 10 22 9 10 30 45 47 78 l31 60 -5 -45 -5 -45 16 35
c12 28 70 100 80 100 1 0 -7 -17 -17 -37z m281 22 c-7 -8 -23 -43 -36 -78 -13
-34 -23 -53 -23 -42 -1 33 50 135 66 135 3 0 0 -7 -7 -15z m221 -50 c10 -22
18 -51 18 -65 0 -19 -4 -14 -14 17 -7 24 -23 59 -35 80 -17 29 -18 34 -4 22 9
-8 25 -32 35 -54z m300 -25 l20 -35 -6 40 -5 40 31 -60 c17 -33 38 -68 47 -78
8 -9 13 -19 10 -22 -3 -3 -20 16 -37 42 -30 44 -32 42 -15 -17 11 -39 -6 -19
-41 48 -36 67 -36 67 -30 25 3 -23 8 -50 11 -60 5 -12 4 -15 -4 -8 -6 6 -15
37 -21 69 -6 33 -18 71 -27 85 -16 24 -15 24 16 -4 17 -16 41 -46 51 -65z
m-423 15 c0 -16 -2 -15 -8 5 -4 14 -8 34 -8 45 0 16 2 15 8 -5 4 -14 8 -34 8
-45z m-529 28 c-80 -92 -127 -119 -183 -109 -46 9 -76 48 -75 95 1 36 2 35 9
-8 7 -48 27 -68 76 -77 41 -8 76 11 139 75 53 54 74 69 34 24z m370 -3 c-13
-16 -25 -28 -27 -25 -5 5 37 55 45 55 2 0 -6 -13 -18 -30z m1030 -33 c16 -86
21 -158 11 -152 -6 4 -11 14 -11 23 -1 9 -4 4 -8 -13 -7 -30 -7 -30 -18 15 -7
25 -14 56 -18 70 -6 24 -6 24 9 6 24 -30 31 -12 20 53 -12 73 1 71 15 -2z
m-1597 -18 c11 -6 39 -9 61 -6 50 7 36 -11 -16 -20 -29 -4 -40 -1 -61 20 -16
17 -26 36 -25 54 1 28 1 28 10 -4 5 -18 19 -38 31 -44z m1464 6 c-18 -28 -63
-40 -99 -26 -39 15 -33 19 17 14 35 -4 48 -1 65 16 11 11 22 31 22 44 l2 22 4
-23 c3 -13 -2 -34 -11 -47z m-92 -49 c44 -11 96 11 112 48 10 24 13 26 14 10
0 -29 -40 -64 -83 -71 -45 -7 -104 25 -149 81 -31 40 -30 39 23 -10 30 -28 67
-54 83 -58z m-81 -39 l32 -29 -35 19 c-19 11 -45 34 -57 53 -31 45 -29 62 2
19 14 -19 40 -47 58 -62z m-1082 44 c-21 -29 -58 -61 -71 -61 -3 0 15 22 40
49 49 54 64 59 31 12z m1109 -22 c14 -7 43 -16 65 -20 l40 -6 -36 -2 c-40 -1
-120 36 -127 59 -4 12 -1 12 14 -1 10 -9 30 -22 44 -30z m-1455 -55 c-17 -46
-43 -75 -30 -34 8 25 -2 22 -45 -14 l-25 -21 20 24 c11 13 30 35 41 48 12 13
28 38 35 56 13 30 14 31 17 8 2 -13 -4 -43 -13 -67z m101 58 c-4 -3 -14 2 -24
12 -16 18 -16 18 6 6 13 -6 21 -14 18 -18z m214 23 c0 -14 -91 -55 -121 -54
-33 1 -33 1 9 10 24 4 55 17 70 28 26 20 42 26 42 16z m1330 1 c0 -2 -8 -10
-17 -17 -16 -13 -17 -12 -4 4 13 16 21 21 21 13z m-1169 -39 c-10 -9 -11 -8
-5 6 3 10 9 15 12 12 3 -3 0 -11 -7 -18z m336 -15 c-30 -31 -87 -57 -87 -40 0
6 -9 3 -20 -7 -11 -10 -20 -15 -20 -10 0 4 -7 1 -17 -6 -15 -13 -15 -12 -1 16
8 17 18 37 22 45 3 8 4 -1 1 -20 -4 -32 -3 -33 10 -16 7 10 18 15 24 12 5 -4
14 2 20 11 8 14 11 15 11 3 0 -10 7 -7 20 10 17 20 19 21 14 5 -6 -19 -5 -18
17 3 33 31 38 27 6 -6z m107 -2 c4 0 4 6 1 13 -4 6 3 1 14 -12 19 -21 21 -21
22 -5 0 18 1 18 8 0 11 -28 51 -29 51 -2 1 16 5 12 16 -14 8 -19 20 -38 27
-42 8 -5 8 -8 1 -8 -6 0 -19 10 -28 23 -15 19 -16 19 -11 3 6 -19 5 -19 -15
-1 -11 10 -20 13 -20 6 0 -16 -70 21 -95 50 l-20 24 21 -17 c11 -10 24 -18 28
-18z m-744 -21 l25 -1 -25 -8 -25 -8 25 -1 c17 -1 21 -4 13 -12 -13 -13 -38
-1 -73 36 l-25 26 30 -15 c17 -9 41 -16 55 -17z m1408 -4 c-37 -34 -68 -45
-68 -25 0 6 10 10 23 11 21 1 21 1 -3 9 -24 8 -24 8 6 9 16 1 39 8 50 16 34
26 30 15 -8 -20z m-951 -39 c-10 -14 -24 -22 -39 -21 -13 1 -31 -2 -40 -7 -25
-12 -22 -6 8 23 22 21 24 21 19 4 -6 -16 -3 -16 15 5 l21 25 -6 -25 c-7 -24
-7 -24 9 -5 8 11 16 27 16 35 1 11 3 11 7 2 3 -7 -2 -23 -10 -36z m468 -6 c2
0 2 8 -1 18 -4 11 1 9 16 -8 15 -17 20 -19 16 -7 -7 23 -4 22 25 -9 24 -26 24
-26 2 -15 -13 6 -23 9 -23 5 0 -3 -6 -1 -13 5 -8 6 -17 8 -21 4 -8 -8 -35 27
-35 47 0 8 7 3 15 -12 8 -16 17 -28 19 -28z m756 -75 c6 -12 0 -8 -16 10 -36
40 -65 87 -65 104 0 13 63 -74 81 -114z m-1301 106 c0 -14 -50 -71 -62 -71 -5
0 4 14 21 31 17 17 31 35 31 40 0 5 2 9 5 9 3 0 5 -4 5 -9z m288 -52 c2 -34
-2 -61 -11 -73 -13 -18 -14 -17 -39 6 -15 13 -29 40 -33 60 -7 35 -5 38 26 52
19 8 39 13 44 12 6 -1 11 -27 13 -57z m76 46 c33 -14 36 -18 31 -46 -11 -63
-56 -104 -75 -69 -16 30 -12 130 5 130 2 0 19 -7 39 -15z m287 -42 c12 -13 16
-23 11 -23 -12 0 -62 62 -62 76 0 5 7 0 15 -11 8 -11 24 -30 36 -42z m476 -21
c0 -43 4 -89 8 -102 5 -19 4 -22 -4 -14 -16 14 -26 111 -17 158 4 20 8 36 10
36 2 0 3 -35 3 -78z m-1608 -26 c-9 -8 -10 -3 -5 23 3 18 7 41 8 50 1 9 3 -1
5 -23 3 -22 -1 -43 -8 -50z m345 52 c-19 -21 -19 -21 1 -15 20 7 20 7 1 -8
-11 -8 -31 -15 -45 -14 -25 0 -25 1 -4 9 11 5 29 20 40 33 10 14 20 23 22 21
2 -2 -4 -14 -15 -26z m909 -19 c32 -19 32 -19 6 -19 -14 0 -34 7 -45 15 -19
15 -19 15 1 8 19 -6 19 -6 3 14 -10 11 -18 24 -18 29 0 5 5 1 11 -9 6 -10 25
-27 42 -38z m-1307 -28 c-3 -38 -10 -80 -15 -93 -9 -22 -10 -22 -10 6 -1 34
20 156 27 156 3 0 2 -31 -2 -69z m214 59 c0 -5 -12 -10 -27 -9 l-28 1 25 8
c14 4 26 8 28 9 1 1 2 -3 2 -9z m83 3 c-7 -2 -13 -11 -13 -19 0 -10 -12 -14
-37 -14 l-38 1 40 18 c22 11 45 19 50 19 6 0 4 -2 -2 -5z m167 -13 c-6 -11
-20 -25 -33 -31 -18 -10 -17 -6 7 20 34 36 41 39 26 11z m980 -13 c8 -3 -1 -6
-21 -6 -28 -1 -38 3 -42 19 -5 18 -3 18 22 6 14 -7 33 -16 41 -19z m60 17 c0
-2 -11 -4 -25 -4 -14 0 -25 4 -25 9 0 4 11 6 25 3 14 -2 25 -6 25 -8z m-1165
-13 c-11 -10 -31 -22 -45 -26 -18 -4 -13 1 15 18 49 31 55 32 30 8z m387 -10
c2 -17 1 -28 -3 -25 -4 2 -9 -1 -11 -8 -3 -7 -13 -2 -26 12 -15 17 -19 27 -12
34 8 8 14 6 20 -4 8 -13 10 -12 10 3 0 28 17 19 22 -12z m238 19 c0 -5 6 -7
14 -4 25 9 27 -15 4 -38 -14 -14 -23 -18 -26 -10 -2 7 -7 10 -11 8 -4 -3 -5 8
-3 25 4 26 22 43 22 19z m271 -17 l24 -27 -24 15 c-14 9 -27 21 -29 27 -6 19
3 14 29 -15z m159 -21 c3 -2 -6 -1 -20 3 -14 4 -34 16 -45 28 -18 18 -16 18
20 -3 22 -13 42 -26 45 -28z m220 -22 c0 -25 9 -71 20 -103 11 -31 20 -78 19
-104 l-1 -48 -12 60 c-13 65 -45 135 -46 101 0 -11 -3 -17 -6 -13 -3 3 -3 45
1 92 8 91 25 100 25 15z m-1053 -27 c-12 -69 -12 -69 -32 -53 -9 7 -15 29 -15
52 0 36 15 53 51 57 3 1 1 -25 -4 -56z m593 -9 c0 -30 -5 -44 -16 -48 -21 -8
-20 -11 -28 56 l-6 58 25 -12 c21 -9 25 -18 25 -54z m563 -9 c4 -43 3 -64 -3
-54 -12 20 -22 108 -14 120 9 15 11 10 17 -66z m-1113 55 c6 9 13 9 28 1 17
-9 20 -18 16 -49 -13 -96 -15 -106 -25 -91 -6 10 -9 10 -9 2 0 -9 -7 -7 -20 4
-15 13 -20 30 -20 64 0 52 11 92 18 70 3 -10 6 -10 12 -1z m475 0 c-6 11 -5
12 4 4 6 -6 12 -37 12 -69 1 -58 -9 -75 -48 -81 -15 -3 -29 73 -24 133 1 16
33 22 50 9 12 -9 13 -8 6 4z m463 -22 c-7 -25 -5 -50 10 -108 16 -61 18 -87
11 -139 -12 -87 -23 -93 -15 -8 7 68 -1 144 -13 132 -3 -4 -6 -14 -7 -23 -5
-77 -8 -81 -13 -17 -7 78 2 159 20 181 17 21 18 18 7 -18z m-1038 1 c0 -11 -4
-17 -10 -14 -5 3 -10 -1 -10 -10 0 -9 -5 -13 -10 -10 -19 12 -2 54 23 55 4 0
7 -9 7 -21z m696 -7 c1 -12 -3 -25 -7 -28 -5 -3 -9 3 -9 13 0 15 -2 16 -10 3
-8 -12 -10 -9 -10 13 0 22 4 28 18 25 10 -2 17 -13 18 -26z m-809 -4 c-3 -8
-6 -5 -6 6 -1 11 2 17 5 13 3 -3 4 -12 1 -19z m938 12 c3 -5 1 -10 -4 -10 -6
0 -11 5 -11 10 0 6 2 10 4 10 3 0 8 -4 11 -10z m-1270 -48 c-9 -22 -15 -55
-13 -74 l4 -33 12 35 12 35 -5 -42 c-3 -24 -8 -62 -11 -85 -6 -40 -5 -42 9
-23 23 31 37 93 37 162 0 34 3 64 8 66 15 10 4 -142 -17 -242 -16 -71 -22
-120 -18 -155 5 -41 4 -47 -5 -31 -6 11 -12 50 -12 87 -1 38 -2 68 -3 68 -11
0 -38 -77 -43 -125 l-7 -60 -2 50 c-1 28 6 83 16 123 16 69 16 78 0 155 -19
92 -23 158 -5 97 l10 -35 20 38 c25 50 34 42 13 -11z m1245 -7 l0 -30 -19 24
-18 24 -7 -41 c-9 -57 -26 -64 -25 -10 0 32 2 38 8 23 8 -19 9 -18 12 5 3 16
10 25 20 24 12 -1 15 5 12 20 -4 17 -3 18 6 6 6 -8 11 -28 11 -45z m-620 23
c1 -20 2 -21 11 -6 19 33 39 9 39 -46 0 -28 -4 -55 -8 -61 -12 -16 -32 -16
-38 0 -3 8 -10 12 -15 9 -5 -3 -9 24 -9 60 0 37 4 66 10 66 6 0 10 -10 10 -22z
m325 -41 c0 -42 -5 -60 -20 -74 -18 -18 -20 -18 -37 -1 -27 27 -25 114 2 121
10 3 21 0 24 -7 2 -6 5 -3 5 7 1 10 7 17 14 14 8 -2 12 -24 12 -60z m-1101 17
c-8 -20 -19 -79 -23 -130 -4 -52 -12 -98 -16 -102 -16 -14 6 183 25 225 23 52
35 58 14 7z m542 -14 c7 0 9 -10 6 -25 -5 -30 -22 -34 -22 -5 0 11 -4 20 -10
20 -5 0 -10 15 -9 33 l1 32 11 -27 c6 -16 16 -28 23 -28z m1348 -115 c8 -84
-8 -69 -18 16 -3 31 -13 72 -21 92 -23 54 -17 58 9 7 15 -28 26 -72 30 -115z
m-997 132 c25 1 33 -20 33 -87 0 -33 -3 -41 -10 -30 -8 13 -10 13 -10 -2 0
-14 -4 -16 -24 -8 -13 5 -27 6 -30 3 -3 -4 -6 5 -6 19 0 14 -3 47 -7 73 -6 45
-5 48 13 40 10 -4 29 -8 41 -8z m122 -42 c-2 -55 -14 -75 -51 -88 -21 -8 -28
11 -28 80 0 49 2 55 19 50 10 -2 25 -1 32 4 26 16 30 9 28 -46z m566 -152 c16
-82 18 -137 5 -168 -6 -14 -9 0 -9 47 -1 37 -6 90 -12 118 -18 84 -32 46 -32
-85 0 -66 -4 -110 -8 -103 -5 7 -9 22 -9 34 0 11 -8 43 -17 70 l-17 49 -10
-45 c-14 -63 -20 -18 -7 52 5 31 6 72 1 98 -7 38 -6 42 5 27 7 -9 15 -40 19
-67 6 -47 26 -81 26 -43 0 10 8 63 17 117 l18 99 7 -63 c4 -34 14 -96 23 -137z
m-1317 137 c-5 -25 -14 -58 -18 -75 -7 -28 -8 -28 -9 13 -1 39 24 121 33 111
3 -2 0 -24 -6 -49z m303 -26 c-6 -28 -9 -32 -10 -14 -1 30 11 79 16 64 2 -6
-1 -28 -6 -50z m68 -32 c1 9 4 19 9 21 4 3 5 -15 3 -39 -4 -51 -17 -49 -27 4
-7 34 -8 35 -14 12 -6 -22 -8 -23 -15 -7 -4 9 -1 32 6 49 l13 32 12 -44 c7
-25 12 -37 13 -28z m655 6 c-18 -77 -24 -83 -25 -27 l-1 44 -20 -65 c-23 -72
-25 -71 -31 15 -3 55 -3 58 9 30 l12 -30 12 45 c12 43 13 44 22 20 7 -18 12
-21 15 -10 2 8 6 21 8 28 3 6 6 12 9 12 2 0 -2 -28 -10 -62z m-951 20 c-3 -18
-9 -40 -14 -48 -12 -22 -12 22 1 54 13 36 21 32 13 -6z m17 -40 c-25 -73 -34
-149 -25 -216 7 -53 8 -55 17 -27 4 17 12 59 18 94 14 96 25 91 26 -12 1 -51
6 -103 12 -117 9 -24 10 -24 21 18 7 25 10 74 7 115 -5 68 -5 69 6 27 9 -37
12 -42 19 -25 5 14 8 3 8 -36 1 -31 4 -78 8 -104 6 -46 6 -47 20 -24 12 22 13
21 7 -16 -3 -22 -13 -67 -21 -100 -9 -33 -19 -85 -24 -115 -6 -41 -7 -27 -4
55 3 61 1 128 -3 150 l-8 40 -14 -70 c-7 -38 -19 -86 -26 -105 -12 -33 -13
-31 -13 50 -1 47 -4 103 -8 125 l-7 40 -25 -82 -26 -82 -2 97 c-2 53 -7 113
-12 132 l-9 35 -3 -40 c-1 -22 -2 -52 -1 -67 4 -51 -14 -29 -32 41 -16 60 -16
79 -7 138 7 38 17 75 22 83 8 11 9 9 5 -10 -24 -111 -16 -220 9 -125 14 52 71
185 79 185 2 0 -4 -24 -14 -52z m1370 -67 c11 -28 20 -59 20 -69 0 -9 -14 16
-30 56 -17 40 -30 88 -29 105 l1 32 9 -36 c4 -20 17 -59 29 -88z m-1643 45
c-6 -37 -47 -130 -54 -123 -2 3 5 27 16 52 12 26 21 68 21 94 1 38 3 43 11 27
6 -10 9 -32 6 -50z m613 34 c-6 -11 -7 -20 -2 -20 4 0 6 -16 4 -35 -5 -42 -22
-37 -22 6 0 29 15 69 26 69 2 0 0 -9 -6 -20z m56 -25 c-3 -8 -2 -15 3 -15 4 0
3 -16 -3 -35 -6 -19 -14 -35 -18 -35 -12 0 -10 58 2 81 13 22 25 26 16 4z
m417 -17 c3 9 5 -4 6 -30 0 -27 -3 -48 -9 -48 -5 0 -10 10 -10 21 0 12 -9 38
-21 58 l-21 36 25 -27 c22 -24 26 -25 30 -10z m-379 -33 c-7 -19 -14 -46 -14
-60 0 -15 -4 -24 -9 -21 -12 8 -4 66 14 93 22 33 26 28 9 -12z m314 20 c15 26
15 12 0 -39 -13 -46 -30 -73 -22 -35 4 18 1 16 -14 -10 l-19 -35 -5 35 c-3 19
-8 43 -12 54 -4 11 0 7 10 -10 16 -27 18 -28 25 -10 4 11 8 31 9 45 1 22 2 23
9 5 8 -19 8 -19 19 0z m296 -68 c9 -37 30 -104 48 -149 28 -70 33 -78 39 -57
10 34 9 -71 -1 -141 l-7 -55 -2 66 c-1 62 -37 189 -61 213 -12 12 -24 -135
-16 -197 4 -29 8 -86 11 -127 l4 -75 -9 64 c-12 82 -18 100 -29 82 -5 -7 -11
48 -13 126 -3 76 -8 147 -12 158 -3 11 1 4 11 -15 22 -46 27 -25 21 92 -2 48
-3 86 -2 85 1 -1 10 -33 18 -70z m520 -102 c4 -16 -11 5 -33 48 -23 44 -41 86
-41 94 0 20 65 -105 74 -142z m-1091 110 c-5 -34 9 -49 21 -22 3 6 4 3 2 -8
-3 -11 -8 -60 -11 -109 -5 -60 -10 -85 -16 -74 -5 9 -5 36 0 63 5 28 5 60 0
79 -14 50 -11 106 7 106 2 0 0 -16 -3 -35z m188 -155 c-1 -47 -2 -94 -3 -105
0 -11 2 -45 6 -75 5 -48 4 -51 -5 -20 -5 19 -16 56 -24 81 -16 51 -21 121 -6
84 16 -38 25 72 11 132 -6 30 -14 52 -16 50 -17 -17 -47 -192 -53 -310 -4 -76
-12 -142 -17 -147 -5 -5 -8 11 -5 42 2 31 -1 48 -7 45 -5 -4 -26 -46 -47 -94
-22 -48 -41 -91 -44 -95 -3 -4 -5 23 -3 61 2 37 -4 105 -12 150 -9 46 -15 120
-15 165 l2 81 7 -85 c4 -47 12 -112 19 -145 6 -33 12 -75 13 -92 1 -18 6 -33
10 -33 4 0 8 1 8 3 0 1 3 36 7 77 3 41 10 82 14 90 6 10 8 -2 5 -34 -4 -38 -2
-46 7 -37 12 12 14 79 8 231 -2 36 2 76 8 90 10 21 10 18 6 -22 -7 -54 4 -144
15 -131 4 4 20 59 36 122 l29 113 24 -53 c21 -46 24 -67 22 -139z m-776 -8
c23 -86 12 -90 -13 -5 -32 107 -35 121 -26 161 8 36 8 35 15 -28 4 -36 14 -94
24 -128z m332 174 c-14 -36 -26 -176 -19 -221 l7 -50 31 75 c17 41 37 92 44
113 18 56 24 38 10 -29 -12 -58 -8 -169 9 -229 6 -22 8 -5 8 63 1 71 6 106 23
152 13 34 24 59 25 58 2 -2 5 -48 8 -103 5 -98 5 -99 -7 -40 -17 85 -26 50
-26 -99 0 -88 -5 -138 -17 -177 l-17 -54 -7 88 c-7 98 -15 117 -24 61 -12 -73
-14 -59 -10 66 l5 125 -18 -40 c-13 -27 -21 -74 -24 -141 -4 -68 -11 -111 -23
-130 -9 -16 -14 -20 -10 -9 16 50 16 109 0 210 -10 65 -15 132 -12 165 7 58
34 160 43 160 4 0 4 -6 1 -14z m683 -181 c23 -44 44 -82 47 -85 7 -6 -3 138
-11 165 -4 11 1 5 9 -12 11 -24 16 -74 18 -182 1 -82 1 -148 0 -147 -2 1 -9
36 -17 78 -16 80 -45 161 -53 141 -2 -6 0 -63 6 -125 8 -86 17 -124 36 -161
13 -26 20 -45 15 -42 -21 13 -61 108 -67 156 -7 58 -14 55 -29 -9 -11 -46 -12
-46 -13 -12 0 19 6 62 14 95 18 76 18 139 0 190 -28 76 -11 58 45 -50z m-86
-75 c4 -72 1 -133 -9 -195 -8 -49 -15 -117 -16 -150 -1 -83 -17 -42 -19 50 -2
39 -5 84 -9 100 -6 27 -8 23 -28 -45 -25 -86 -43 -178 -44 -229 0 -31 -1 -33
-9 -14 -6 14 -4 58 5 119 8 54 16 122 16 153 1 31 4 46 6 34 7 -35 21 -27 28
15 3 20 8 44 9 54 2 9 0 35 -4 58 -5 25 -4 38 1 33 5 -5 14 -38 20 -73 15 -94
26 -105 34 -36 7 55 3 113 -11 165 -5 17 -4 22 4 17 8 -5 12 3 12 25 0 66 8
20 14 -81z m-1133 20 c18 30 9 -30 -11 -70 -23 -45 -33 -52 -25 -17 9 39 13
71 16 117 l2 45 4 -45 c3 -31 7 -40 14 -30z m1027 -47 l-4 -38 -8 38 c-5 20
-5 54 0 75 l8 37 4 -37 c2 -21 2 -55 0 -75z m732 47 c0 -25 17 -35 23 -13 3
10 5 -2 6 -25 1 -36 7 -50 35 -78 19 -19 30 -34 26 -34 -15 0 -71 52 -85 80
-16 32 -27 102 -14 94 5 -3 9 -14 9 -24z m-174 -25 c7 -19 13 -56 13 -82 l-1
-48 -9 57 c-4 32 -13 67 -19 77 -11 22 -13 31 -4 31 3 0 12 -16 20 -35z
m-1522 -52 c-8 -32 -13 -83 -13 -113 l0 -55 19 42 c11 24 23 60 27 80 7 32 9
23 13 -57 3 -52 4 -97 3 -99 -1 -2 -8 12 -16 30 l-14 34 -12 -53 c-7 -29 -11
-64 -9 -77 3 -13 2 -22 -2 -20 -4 2 -13 39 -20 81 -14 78 -6 173 19 237 17 44
19 31 5 -30z m1686 -101 c8 -57 -2 -158 -17 -173 -4 -4 -8 20 -9 54 0 38 -7
75 -17 95 -10 17 -14 32 -9 32 5 0 14 -10 21 -22 9 -19 11 -13 8 40 -4 76 11
59 23 -26z m-1044 -246 c9 -15 12 -3 16 58 3 44 11 82 18 89 10 10 12 8 6 -7
-13 -37 -18 -162 -8 -206 6 -24 9 -46 8 -48 -2 -1 -16 18 -30 43 -40 67 -50
133 -40 250 l9 100 5 -130 c3 -71 10 -138 16 -149z m205 169 c-25 -82 -26
-117 -4 -186 l17 -52 9 34 c5 19 7 61 4 94 -4 46 -3 54 5 35 10 -24 6 -118 -9
-260 l-8 -65 -6 65 c-3 36 -15 100 -27 143 -23 84 -20 134 15 225 24 65 27 43
4 -33z m-435 -27 c0 -63 4 -90 18 -110 10 -16 15 -28 12 -28 -19 0 -46 69 -46
120 0 47 8 100 14 100 1 0 2 -37 2 -82z m-248 -88 c0 -97 -3 -124 -9 -95 -4
22 -8 55 -8 73 -1 39 -18 43 -23 5 l-3 -28 -18 32 c-11 21 -17 53 -16 95 0 69
16 55 19 -17 l1 -40 19 40 c10 22 19 54 19 70 1 23 4 26 11 15 5 -8 9 -76 8
-150z m747 103 c13 -58 13 -63 6 -67 -4 -3 -12 17 -17 45 -6 27 -7 49 -2 49 4
0 10 -12 13 -27z m639 -100 c-15 -45 -20 -52 -22 -33 -2 14 -7 42 -12 63 -9
44 -6 47 14 10 15 -28 15 -28 17 27 1 52 2 53 11 23 8 -24 6 -44 -8 -90z
m-1025 40 c0 -47 -3 -62 -9 -48 -14 34 -10 115 6 115 2 0 4 -30 3 -67z m243
-15 c-2 -38 -9 -68 -15 -68 -11 0 -4 110 8 130 11 18 12 9 7 -62z m-549 -42
c3 -39 2 -63 -3 -55 -13 25 -21 87 -14 116 9 34 11 27 17 -61z m907 -68 c0
-15 -5 -30 -11 -34 -7 -4 -9 0 -5 13 3 11 -1 39 -9 63 -8 23 -15 54 -15 69 1
35 39 -73 40 -111z m354 88 c10 -21 16 -58 15 -98 -1 -75 -16 -44 -18 37 -1
28 -8 60 -17 73 -8 12 -11 22 -6 22 5 0 17 -15 26 -34z m-1184 -71 c14 -49 10
-169 -6 -185 -8 -8 -9 3 -3 37 4 26 8 64 8 83 l1 35 -20 -25 -19 -25 10 39 c6
21 9 50 6 62 -8 42 10 26 23 -21z m712 -37 c4 -87 -13 -71 -19 19 -4 47 -2 65
5 58 6 -5 12 -40 14 -77z m377 -2 c-6 -36 -9 -86 -7 -110 1 -25 -1 -41 -5 -37
-13 13 -12 132 2 180 18 62 24 44 10 -33z m-783 -57 c-3 -32 -12 -73 -20 -91
l-14 -33 -1 55 c-1 30 -4 66 -7 80 l-5 25 16 -25 c15 -24 16 -23 12 38 -3 61
-3 62 11 36 10 -20 13 -44 8 -85z m704 36 c-6 -16 -12 -54 -13 -86 l-2 -58
-17 32 c-9 18 -17 50 -17 72 1 34 2 36 8 15 8 -24 9 -23 26 18 19 46 32 53 15
7z m-547 -18 c-3 -26 1 -56 10 -77 l15 -35 2 30 c3 70 19 69 19 -2 1 -39 4
-78 7 -87 13 -35 -14 -13 -31 24 -33 72 -46 56 -20 -25 3 -11 -4 -2 -17 20
-18 32 -23 36 -25 20 -2 -11 3 -42 11 -70 26 -93 26 -100 -1 -45 -37 76 -37
154 -1 233 15 31 29 57 31 57 3 0 2 -19 0 -43z m447 -147 c-7 -30 -21 -71 -31
-90 -13 -22 -17 -26 -12 -10 4 14 8 60 8 102 0 68 1 74 13 55 11 -19 12 -14 8
43 l-5 65 15 -55 c13 -46 14 -64 4 -110z m-810 99 c0 -36 -11 -89 -19 -89 -3
0 -4 32 -3 72 3 47 7 66 13 57 5 -8 9 -26 9 -40z m109 -84 c0 -5 -8 1 -19 15
l-20 25 0 -30 c0 -16 9 -50 20 -74 30 -65 23 -74 -9 -11 -21 41 -30 75 -34
135 l-5 80 33 -65 c19 -36 34 -69 34 -75z m547 -98 c-14 -28 -24 -43 -21 -32
2 11 7 41 11 67 4 30 10 45 17 41 6 -4 8 0 4 10 -3 10 -3 25 1 35 5 11 8 3 10
-26 2 -30 -4 -58 -22 -95z m-431 44 c0 -82 -12 -95 -22 -22 -3 23 0 54 7 71 7
16 13 30 14 30 0 0 1 -36 1 -79z m290 -118 c-20 -37 -33 -59 -29 -48 4 11 9
46 12 78 4 57 21 90 23 45 0 -22 1 -22 9 -3 5 11 10 36 11 55 2 30 3 28 6 -12
3 -38 -2 -58 -32 -115z"/>
<path d="M1651 4261 c-8 -5 14 -7 55 -4 38 3 71 7 73 9 9 8 -115 3 -128 -5z"/>
<path d="M1888 4253 c7 -3 16 -2 19 1 4 3 -2 6 -13 5 -11 0 -14 -3 -6 -6z"/>
<path d="M1782 4000 c0 -14 3 -34 8 -45 l9 -20 -1 20 c0 11 -4 31 -8 45 l-8
25 0 -25z"/>
<path d="M1787 3625 c-7 -165 2 -337 17 -352 9 -9 17 203 10 274 -3 43 -9 121
-13 173 -6 91 -7 87 -14 -95z"/>
<path d="M2223 3755 c-3 -9 -3 -18 -1 -21 3 -3 8 4 11 16 6 23 -1 27 -10 5z"/>
<path d="M2186 3654 c-3 -9 -11 -12 -18 -8 -8 5 -9 2 -5 -9 4 -10 9 -23 12
-29 7 -19 -15 -42 -60 -66 -59 -30 -90 -58 -36 -32 30 15 46 18 50 11 5 -8 13
-6 27 4 34 26 44 18 45 -32 l1 -48 11 40 c16 54 27 69 62 89 27 15 28 17 5 11
-81 -19 -78 -19 -85 14 -3 17 -4 40 0 51 7 23 0 27 -9 4z"/>
<path d="M2242 3498 c-7 -7 -12 -19 -12 -27 0 -11 5 -8 16 7 18 25 15 39 -4
20z"/>
<path d="M1390 3267 c8 -7 22 -21 30 -31 14 -17 13 -18 -7 -12 -41 13 -62 15
-90 6 -27 -8 -27 -8 9 -9 51 -1 136 -41 173 -81 l30 -32 -35 7 c-56 12 -28 -5
37 -22 69 -18 169 -69 178 -90 4 -13 3 -14 -10 -3 -13 11 -14 10 -8 -5 5 -15
3 -17 -12 -12 -15 6 -16 5 -5 -8 10 -11 15 -13 20 -4 6 8 9 8 14 0 4 -6 3 -11
-3 -11 -6 0 -8 -8 -4 -17 6 -17 5 -17 -13 -2 -10 9 -26 20 -34 24 -12 7 -12 5
1 -11 35 -42 30 -47 -11 -9 l-43 40 25 -35 c44 -61 42 -66 -7 -15 l-47 50 23
-40 22 -40 -48 45 c-39 36 -44 39 -28 15 46 -69 42 -75 -12 -19 -32 32 -53 52
-48 44 26 -38 87 -116 97 -122 6 -4 41 -8 78 -8 58 0 69 3 82 22 9 12 16 18
16 12 0 -6 -9 -20 -21 -33 -18 -19 -30 -22 -96 -20 l-74 2 -61 79 c-33 43 -81
94 -106 113 -50 37 -80 48 -41 15 29 -24 18 -26 -19 -4 -27 16 -27 16 -6 -2
12 -11 30 -25 40 -32 17 -11 17 -12 -6 -7 l-25 6 24 -18 c57 -42 62 -51 11
-22 -146 85 -141 83 -215 83 -83 1 -133 -22 -200 -89 -52 -51 -108 -150 -73
-129 8 5 9 -5 5 -37 -3 -25 -1 -51 4 -59 9 -12 10 -12 5 3 -3 11 -3 24 1 30 5
7 10 0 14 -18 6 -27 7 -25 9 15 2 41 3 43 10 15 6 -25 8 -17 15 43 7 66 11 76
47 115 l39 42 -35 -49 c-20 -27 -36 -58 -36 -68 0 -38 42 -197 60 -226 12 -20
37 -37 72 -51 40 -17 45 -21 20 -17 -20 4 -31 2 -27 -4 3 -6 -1 -7 -9 -4 -9 3
-14 10 -11 14 3 4 -2 11 -11 14 -8 3 -12 2 -9 -3 3 -5 1 -12 -5 -16 -6 -4 -8
-11 -5 -16 3 -5 -1 -6 -10 -2 -11 4 -13 8 -5 13 8 5 6 11 -5 20 -13 11 -14 10
-9 -6 7 -18 6 -18 -17 1 l-24 20 18 -21 c22 -27 22 -40 0 -23 -15 11 -15 10 1
-8 30 -35 72 -37 172 -9 101 29 129 32 197 21 29 -4 47 -4 47 3 0 5 10 12 23
15 12 2 31 8 41 12 14 6 17 5 12 -3 -18 -29 17 -8 62 38 27 28 56 50 63 50 9
-1 8 -4 -4 -11 -13 -8 -15 -14 -8 -23 16 -19 -131 -144 -204 -173 -43 -17 -50
-22 -25 -17 19 3 50 13 69 20 30 12 32 12 21 -1 -11 -13 -10 -14 6 -8 17 6 18
5 4 -12 -9 -12 -10 -16 -2 -11 7 4 25 29 40 56 31 55 82 102 82 77 0 -9 -6
-18 -12 -20 -8 -3 -9 -6 -2 -6 20 -2 61 48 77 92 9 23 24 66 35 96 11 29 32
65 48 80 l28 26 -22 -26 c-12 -14 -22 -28 -22 -32 0 -26 -77 -197 -98 -220
-16 -16 -20 -26 -11 -22 23 9 19 -54 -6 -91 -15 -24 -16 -27 -2 -15 10 7 30
41 47 75 31 64 41 65 15 2 -8 -20 -13 -36 -10 -36 9 0 40 79 54 134 6 27 23
72 37 100 14 28 18 43 10 33 -13 -17 -14 -16 -12 16 3 34 39 97 56 97 16 0 53
-62 55 -91 2 -24 -1 -27 -13 -17 -8 7 -4 -9 11 -38 14 -29 32 -73 38 -100 14
-55 45 -134 54 -134 3 0 -2 16 -10 36 -26 63 -16 62 15 -2 17 -34 38 -68 47
-75 15 -12 15 -10 -1 16 -11 16 -20 39 -22 52 -2 20 0 22 19 11 20 -10 21 -10
8 5 -7 10 -10 17 -5 17 4 0 -4 12 -18 28 -15 15 -33 45 -41 67 -49 129 -64
166 -82 187 -15 18 -13 18 9 -3 16 -15 37 -51 48 -80 11 -30 26 -73 35 -95 8
-23 28 -54 44 -70 27 -26 28 -26 24 -5 l-4 22 27 -21 c14 -12 35 -37 47 -57
11 -20 26 -39 34 -41 8 -3 11 0 7 6 -3 5 22 1 55 -9 83 -26 97 -23 24 5 -73
28 -221 152 -204 172 7 9 5 15 -8 23 -13 8 -14 10 -4 11 8 0 36 -22 62 -50 42
-45 82 -69 63 -38 -5 8 -2 9 12 3 10 -4 29 -10 42 -12 12 -3 22 -10 22 -15 0
-7 18 -7 48 -3 68 11 101 8 199 -21 98 -28 140 -26 169 9 16 18 16 19 2 8 -10
-7 -18 -10 -18 -6 0 5 8 18 18 29 17 21 17 21 -5 2 -14 -12 -23 -14 -23 -7 0
7 -5 9 -11 5 -8 -5 -8 -9 1 -14 8 -5 6 -9 -6 -14 -10 -4 -15 -4 -11 0 10 10
-12 34 -31 34 -13 0 -13 -2 2 -13 16 -12 16 -13 -3 -13 -11 0 -17 4 -15 8 3 4
-10 5 -28 3 -25 -4 -21 -1 17 13 32 12 58 30 71 50 19 28 64 192 64 233 0 9
-16 38 -36 65 l-35 49 39 -42 c36 -39 40 -49 47 -115 7 -60 9 -68 15 -43 7 28
8 26 10 -15 2 -40 3 -42 9 -15 4 20 9 26 14 18 5 -7 5 -18 1 -25 -4 -7 -3 -8
5 -4 8 5 10 22 5 53 -5 33 -4 44 5 39 41 -26 -40 106 -91 147 -79 63 -143 85
-221 73 -37 -6 -158 -68 -224 -115 -10 -8 -7 -3 7 10 14 13 37 32 50 42 l25
18 -25 -6 c-23 -5 -23 -4 -6 7 10 7 28 21 40 31 19 15 19 16 2 10 -13 -4 -17
-3 -12 5 13 21 -8 12 -56 -23 -25 -19 -73 -70 -107 -113 l-60 -79 -79 -2 c-77
-2 -80 -1 -97 26 -18 28 -18 28 2 11 14 -13 37 -18 84 -18 35 0 69 4 75 8 10
6 71 84 97 122 5 8 -16 -12 -48 -44 -54 -56 -58 -50 -12 19 16 24 10 21 -28
-15 -48 -45 -49 -43 -13 15 12 17 -2 7 -33 -25 -53 -56 -56 -53 -11 10 l25 35
-43 -40 c-40 -37 -47 -33 -12 8 22 25 3 21 -26 -5 -22 -20 -24 -20 -18 -4 5
14 3 17 -10 12 -14 -5 -15 -4 -4 9 9 11 15 12 20 5 5 -7 11 -6 20 5 11 13 10
15 -4 9 -9 -4 -16 -1 -16 6 0 9 -4 9 -17 -1 -15 -13 -15 -12 -2 8 17 28 107
77 190 103 35 11 71 25 79 31 13 9 12 10 -3 5 -11 -3 -31 -9 -45 -12 l-27 -7
25 28 c31 34 121 75 169 76 l36 1 -30 9 c-18 5 -44 5 -64 -1 -19 -5 -36 -8
-38 -6 -2 2 9 15 23 29 15 15 21 27 14 27 -6 0 -44 -30 -83 -67 -65 -63 -78
-69 -38 -18 8 11 -7 0 -33 -25 -48 -44 -49 -44 -26 -10 l23 35 -32 -30 c-26
-24 -31 -26 -26 -10 4 11 -3 5 -16 -13 -14 -22 -24 -29 -29 -22 -4 6 -11 10
-16 8 -5 -1 -11 11 -14 27 -5 25 -7 27 -13 12 -4 -10 -7 -28 -7 -40 0 -25 -30
-92 -53 -122 -15 -19 -16 -18 -11 20 4 37 4 38 -8 15 -12 -24 -12 -24 -16 18
-2 23 -7 42 -12 42 -5 0 -10 -19 -12 -42 -4 -42 -4 -42 -16 -18 -12 23 -12 23
-8 -14 3 -21 3 -37 1 -34 -21 21 -57 87 -61 112 -3 17 -8 42 -11 56 -6 25 -6
25 -12 -5 -4 -16 -10 -28 -15 -27 -5 2 -12 -2 -16 -8 -5 -7 -15 0 -29 22 -13
18 -20 24 -16 13 5 -16 0 -14 -26 10 l-32 30 23 -35 23 -35 -43 40 c-39 37
-41 38 -24 10 12 -20 -6 -7 -53 38 -39 37 -77 67 -85 67 -10 -1 -10 -3 2 -13z
m855 -227 c-3 -5 -11 -10 -16 -10 -6 0 -7 5 -4 10 3 6 11 10 16 10 6 0 7 -4 4
-10z m355 -223 c-9 -22 -9 -22 -10 3 0 14 -3 36 -6 50 -6 24 -5 24 10 -3 10
-19 12 -34 6 -50z m-1588 31 c-6 -41 -23 -46 -20 -5 2 18 8 34 14 34 5 0 8
-13 6 -29z m661 -98 c-3 -11 -14 -25 -25 -31 -18 -10 -18 -8 3 20 27 37 29 37
22 11z m286 -28 c14 -11 14 -11 -2 -6 -10 4 -22 15 -27 25 -14 25 -12 38 2 14
6 -11 19 -26 27 -33z m-800 -104 c12 4 12 3 0 -10 -10 -11 -21 -13 -44 -7 -16
5 -31 9 -32 9 -1 0 1 7 4 17 5 12 3 14 -8 8 -8 -4 -11 -4 -6 0 4 5 -1 17 -10
28 -10 11 5 4 32 -15 28 -20 56 -33 64 -30z m1381 47 c-7 -8 -9 -15 -4 -15 13
0 -34 -40 -58 -49 -17 -6 -27 -4 -37 7 -12 13 -12 14 0 10 8 -3 34 10 59 28
50 37 58 41 40 19z m-123 -61 c-3 -3 -12 -4 -19 -1 -8 3 -5 6 6 6 11 1 17 -2
13 -5z"/>
<path d="M1636 3147 c3 -10 9 -15 12 -12 3 3 0 11 -7 18 -10 9 -11 8 -5 -6z"/>
<path d="M1955 3149 c-4 -6 -5 -12 -2 -15 2 -3 7 2 10 11 7 17 1 20 -8 4z"/>
<path d="M1025 3111 c-22 -10 -49 -31 -61 -47 -35 -49 -39 -60 -14 -39 25 21
22 13 -17 -44 -37 -54 -27 -58 25 -7 66 66 131 96 206 96 43 0 57 3 46 10 -8
5 -11 10 -5 10 5 0 -1 7 -14 16 -23 17 -91 16 -136 -1 l-20 -8 20 16 c26 21
19 21 -30 -2z"/>
<path d="M2545 3114 l20 -17 -20 8 c-36 14 -139 19 -131 6 4 -6 0 -11 -11 -11
-14 0 -15 -2 -4 -9 11 -7 10 -10 -5 -14 -10 -2 8 -5 41 -6 79 -2 132 -27 207
-98 l61 -58 -22 40 c-11 22 -29 51 -38 65 l-17 25 23 -20 24 -20 -11 20 c-23
42 -59 75 -97 90 -38 15 -39 15 -20 -1z"/>
<path d="M1300 3080 c8 -5 20 -10 25 -10 6 0 3 5 -5 10 -8 5 -19 10 -25 10 -5
0 -3 -5 5 -10z"/>
<path d="M2280 3080 c-9 -6 -10 -10 -3 -10 6 0 15 5 18 10 8 12 4 12 -15 0z"/>
<path d="M962 2805 c0 -11 3 -29 8 -40 11 -25 11 1 0 35 -6 20 -8 21 -8 5z"/>
<path d="M2626 2784 c-4 -14 -5 -28 -3 -31 3 -2 8 8 11 23 4 14 5 28 3 31 -3
2 -8 -8 -11 -23z"/>
<path d="M1757 2793 c-4 -3 -7 -11 -7 -17 0 -6 5 -5 12 2 6 6 9 14 7 17 -3 3
-9 2 -12 -2z"/>
<path d="M1830 2791 c0 -5 5 -13 10 -16 6 -3 10 -2 10 4 0 5 -4 13 -10 16 -5
3 -10 2 -10 -4z"/>
<path d="M1801 2694 c0 -11 3 -14 6 -6 3 7 2 16 -1 19 -3 4 -6 -2 -5 -13z"/>
<path d="M892 2665 c0 -16 3 -39 8 -50 8 -18 9 -18 8 5 0 14 -4 36 -8 50 -8
24 -8 24 -8 -5z"/>
<path d="M2696 2651 c-4 -24 -5 -46 -2 -48 7 -7 19 63 14 79 -3 7 -8 -7 -12
-31z"/>
<path d="M1720 2548 c-18 -57 -48 -143 -67 -192 -40 -101 -40 -127 4 -199 30
-50 55 -66 78 -47 10 9 14 7 17 -7 3 -10 13 19 23 65 10 45 21 82 25 82 4 0
15 -37 25 -82 10 -46 20 -75 23 -65 3 14 7 16 17 7 8 -7 22 -9 32 -6 25 8 83
107 83 141 0 16 -15 67 -34 114 -19 47 -48 132 -66 189 -17 56 -36 102 -42
102 -6 0 -17 -8 -24 -17 -13 -17 -15 -17 -28 0 -7 9 -18 17 -24 17 -6 0 -25
-46 -42 -102z m17 -70 c-3 -8 -6 -5 -6 6 -1 11 2 17 5 13 3 -3 4 -12 1 -19z
m130 0 c-3 -8 -6 -5 -6 6 -1 11 2 17 5 13 3 -3 4 -12 1 -19z m-57 -199 c0 -5
-4 -9 -10 -9 -5 0 -10 7 -10 16 0 8 5 12 10 9 6 -3 10 -10 10 -16z m-110 -89
c14 -8 27 -7 43 0 21 11 21 10 3 -4 -15 -12 -16 -16 -5 -16 8 -1 3 -7 -11 -16
-18 -11 -19 -14 -5 -9 15 5 17 3 8 -6 -16 -16 -37 -6 -64 33 l-23 33 24 -20
24 -20 -17 27 c-9 15 -17 31 -17 35 0 4 5 0 11 -9 5 -10 19 -22 29 -28z m235
10 c-3 -47 -52 -89 -70 -60 -3 6 1 7 12 4 10 -3 7 2 -7 10 -14 8 -19 15 -11
16 9 0 8 5 -6 18 -10 9 -14 14 -9 10 20 -16 65 -8 76 12 14 27 17 25 15 -10z"/>
<path d="M1916 2183 c-6 -14 -5 -15 5 -6 7 7 10 15 7 18 -3 3 -9 -2 -12 -12z"/>
<path d="M1569 2623 c-13 -15 -12 -15 9 -4 23 12 28 21 13 21 -5 0 -15 -7 -22
-17z"/>
<path d="M2000 2635 c0 -2 10 -10 23 -16 20 -11 21 -11 8 4 -13 16 -31 23 -31
12z"/>
<path d="M1330 2536 c0 -16 46 -14 92 3 18 6 10 9 -35 10 -43 1 -57 -3 -57
-13z"/>
<path d="M2190 2534 l35 -14 -35 6 c-53 8 -17 -11 57 -30 34 -9 70 -19 80 -22
15 -5 15 -4 4 4 -12 9 -10 12 12 17 15 4 35 4 44 1 15 -5 14 -3 -2 9 -15 12
-36 14 -90 10 -52 -4 -64 -3 -47 5 36 16 16 30 -41 29 l-52 -1 35 -14z"/>
<path d="M925 2489 c0 -32 4 -49 13 -49 6 0 12 5 12 10 0 6 11 5 28 -4 26 -13
210 -41 219 -33 2 3 -10 7 -27 11 -17 3 -29 9 -27 14 3 4 -12 6 -33 4 -21 -2
-48 2 -61 9 -13 7 -27 13 -31 14 -4 0 -14 9 -23 20 l-15 20 6 -20 c5 -17 2
-16 -15 5 -11 14 -21 21 -21 15 0 -5 -6 0 -13 12 -11 20 -12 17 -12 -28z"/>
<path d="M2656 2508 c-9 -18 -14 -24 -11 -13 4 17 2 16 -15 -5 -17 -21 -19
-22 -14 -5 l6 20 -17 -20 c-9 -11 -19 -20 -23 -20 -4 -1 -18 -7 -31 -14 -15
-8 -41 -11 -69 -8 -27 3 -39 1 -31 -4 10 -6 5 -10 -19 -15 -63 -13 -24 -15 69
-3 52 6 106 17 121 25 28 15 45 5 32 -18 -5 -10 -4 -10 5 -2 9 9 25 114 17
114 -1 0 -10 -15 -20 -32z"/>
<path d="M1385 2519 c-16 -5 -57 -7 -90 -4 -46 5 -65 2 -80 -10 -16 -12 -17
-14 -2 -9 9 3 29 3 44 -1 22 -5 24 -8 12 -17 -11 -8 -11 -9 4 -4 10 3 46 13
80 22 66 17 106 34 77 33 -8 0 -28 -5 -45 -10z"/>
<path d="M1595 2520 c-3 -6 1 -7 9 -4 18 7 21 14 7 14 -6 0 -13 -4 -16 -10z"/>
<path d="M821 2414 c-12 -98 -12 -103 9 -153 26 -59 26 -59 152 -105 104 -37
112 -37 191 17 20 14 61 31 90 39 l52 13 -40 5 c-28 4 -46 1 -59 -10 -11 -8
-16 -9 -12 -2 11 18 -5 15 -21 -5 -13 -16 -14 -16 -8 7 6 24 5 24 -10 -2 -18
-33 -30 -37 -22 -8 7 28 1 25 -18 -7 l-16 -28 5 35 c5 33 5 34 -9 16 -8 -11
-15 -25 -15 -32 0 -7 -4 -15 -9 -19 -6 -3 -8 10 -5 32 4 29 3 34 -5 23 -6 -8
-11 -23 -11 -32 0 -9 -4 -20 -10 -23 -6 -4 -8 12 -5 42 l5 48 -17 -35 -17 -35
-4 30 -4 30 -13 -30 -13 -30 -2 45 -2 45 -11 -35 -11 -35 -6 45 -6 45 -8 -32
c-12 -51 -21 -46 -19 10 l2 52 -14 -44 c-21 -64 -26 -62 -19 10 7 70 0 76 -15
13 -9 -33 -10 -28 -6 36 4 74 4 75 -8 28 -17 -67 -22 -65 -19 6 6 119 -3 135
-17 30z"/>
<path d="M2763 2418 c1 -53 0 -94 -3 -92 -3 3 -10 24 -17 47 -12 41 -12 41 -7
-23 l4 -65 -15 40 -15 40 5 -64 c6 -72 1 -74 -20 -10 l-14 44 2 -52 c2 -56 -7
-61 -19 -10 l-8 32 -6 -45 -6 -45 -11 35 -11 35 -2 -45 -2 -45 -13 30 -13 30
-4 -30 -4 -30 -17 35 -17 35 5 -48 c3 -30 1 -46 -5 -42 -6 3 -10 14 -10 23 0
9 -5 24 -11 32 -8 11 -9 5 -5 -25 5 -37 4 -38 -9 -21 -8 11 -15 26 -15 33 0 7
-4 13 -9 13 -4 0 -6 -12 -4 -27 l4 -28 -16 28 c-19 33 -25 35 -18 5 6 -22 6
-22 -15 2 -19 21 -21 22 -16 5 5 -19 5 -19 -9 -2 -16 20 -32 23 -21 5 4 -7 -1
-6 -12 2 -13 11 -31 14 -59 10 l-40 -5 52 -13 c29 -8 69 -25 88 -38 85 -57 84
-57 187 -20 51 19 101 38 112 42 23 9 66 100 65 139 0 17 -6 64 -14 105 l-13
75 1 -97z"/>
<path d="M2057 2445 c3 -13 17 -34 31 -47 l26 -23 -22 32 c-12 17 -22 36 -22
41 0 6 -4 13 -9 16 -4 3 -6 -5 -4 -19z"/>
<path d="M1526 2440 c-5 -14 -16 -34 -24 -45 -9 -11 -4 -8 12 6 17 16 26 34
24 45 -4 16 -5 15 -12 -6z"/>
<path d="M1986 2363 c51 -119 50 -143 -4 -228 -22 -36 -23 -38 -4 -21 12 11
22 15 22 10 1 -5 9 1 19 13 10 12 21 19 25 16 3 -4 6 18 6 48 0 42 -8 72 -35
127 -35 75 -57 100 -29 35z"/>
<path d="M1215 2380 c-18 -8 -17 -9 7 -9 15 -1 30 4 33 9 7 12 -12 12 -40 0z"/>
<path d="M2350 2380 c8 -5 24 -9 35 -9 l20 0 -20 9 c-11 5 -27 9 -35 9 -13 1
-13 0 0 -9z"/>
<path d="M1580 2319 c-22 -47 -30 -79 -30 -118 0 -30 3 -52 6 -48 4 3 15 -4
25 -16 10 -12 18 -18 19 -13 0 5 10 1 22 -10 19 -17 18 -15 -4 21 -48 75 -53
106 -24 177 34 83 24 87 -14 7z"/>
<path d="M1080 2350 c8 -5 24 -10 35 -10 17 0 17 2 5 10 -8 5 -24 10 -35 10
-17 0 -17 -2 -5 -10z"/>
<path d="M2475 2350 c-18 -8 -18 -9 5 -9 14 0 32 4 40 9 12 8 12 10 -5 9 -11
0 -29 -4 -40 -9z"/>
<path d="M1294 2329 c-3 -5 3 -9 14 -9 11 0 36 -13 57 -30 34 -27 99 -49 111
-37 3 2 -12 15 -33 27 l-38 22 28 14 c15 8 27 17 27 20 0 2 -9 0 -19 -6 -23
-12 -34 -13 -28 -2 3 4 -22 8 -54 9 -32 1 -61 -3 -65 -8z"/>
<path d="M2140 2336 c0 -3 12 -12 26 -19 l26 -14 -36 -23 c-21 -12 -35 -25
-32 -27 12 -12 77 10 111 37 21 17 47 30 58 30 11 0 17 3 13 8 -4 4 -34 7 -66
7 -32 0 -56 -3 -53 -7 6 -11 -5 -10 -28 2 -10 6 -19 8 -19 6z"/>
<path d="M1410 2121 c0 -5 7 -12 16 -15 14 -5 15 -4 4 9 -14 17 -20 19 -20 6z"/>
<path d="M1761 1674 c0 -11 3 -14 6 -6 3 7 2 16 -1 19 -3 4 -6 -2 -5 -13z"/>
<path d="M1831 1674 c0 -11 3 -14 6 -6 3 7 2 16 -1 19 -3 4 -6 -2 -5 -13z"/>
<path d="M2031 1544 c0 -11 3 -14 6 -6 3 7 2 16 -1 19 -3 4 -6 -2 -5 -13z"/>
</g>
</svg>
